<svg xmlns="http://www.w3.org/2000/svg" height="512pt" viewBox="0 0 512 512" width="512pt" style="&#10;    margin: auto;&#10;"><path d="m469.332031 0h-426.664062c-23.554688.0273438-42.6406252 19.113281-42.667969 42.667969v324.265625c.0273438 23.550781 19.113281 42.636718 42.667969 42.667968h161.464843c-3.667968 26.203126-23.292968 51.199219-42 51.199219-14.136718 0-25.597656 11.460938-25.597656 25.597657 0 14.140624 11.460938 25.601562 25.597656 25.601562h187.734376c14.136718 0 25.597656-11.460938 25.597656-25.601562 0-14.136719-11.460938-25.597657-25.597656-25.597657-18.707032 0-38.332032-24.996093-42-51.199219h161.464843c23.554688-.03125 42.640625-19.117187 42.667969-42.667968v-324.265625c-.027344-23.554688-19.113281-42.6406252-42.667969-42.667969zm-426.664062 17.066406h426.664062c14.140625 0 25.601563 11.460938 25.601563 25.601563v25.597656h-85.332032c-4.714843 0-8.535156 3.820313-8.535156 8.535156 0 4.710938 3.820313 8.53125 8.535156 8.53125h85.332032v170.667969h-17.066406c-4.714844 0-8.535157 3.820312-8.535157 8.535156 0 4.710938 3.820313 8.53125 8.535157 8.53125h17.066406v51.199219h-477.867188v-51.199219h230.398438c4.714844 0 8.535156-3.820312 8.535156-8.53125-.027344-59.558594-47.097656-108.457031-106.613281-110.75-59.511719-2.292968-110.207031 42.835938-114.816407 102.214844h-17.503906v-170.667969h307.199219c4.714844 0 8.535156-3.820312 8.535156-8.53125 0-4.714843-3.820312-8.535156-8.535156-8.535156h-307.199219v-25.597656c0-14.140625 11.460938-25.601563 25.601563-25.601563zm134.03125 215.832032c-3.332031-3.328126-8.734375-3.328126-12.066407 0l-23.097656 23.101562h-89.949218c4.386718-48.355469 44.925781-85.386719 93.480468-85.386719 48.554688 0 89.09375 37.03125 93.484375 85.386719h-72.882812l11.03125-11.035156c3.332031-3.332032 3.332031-8.730469 0-12.066406zm173.167969 262.035156h-187.734376c-4.710937 0-8.53125-3.820313-8.53125-8.535156 0-4.710938 3.820313-8.53125 8.53125-8.53125h187.734376c4.710937 0 8.53125 3.820312 8.53125 8.53125 0 4.714843-3.820313 8.535156-8.53125 8.535156zm-35.242188-34.132813h-117.25c13.378906-13.992187 21.8125-31.972656 24.023438-51.199219h69.203124c2.210938 19.226563 10.644532 37.207032 24.023438 51.199219zm180.308594-93.867187c0 14.136718-11.460938 25.601562-25.601563 25.601562h-426.664062c-14.140625 0-25.601563-11.464844-25.601563-25.601562v-25.601563h477.867188zm0 0" style="&#10;    fill: #cf5e98;&#10;"/><path d="m264.535156 366.933594c0 4.710937-3.824218 8.53125-8.535156 8.53125s-8.535156-3.820313-8.535156-8.53125c0-4.714844 3.824218-8.535156 8.535156-8.535156s8.535156 3.820312 8.535156 8.535156zm0 0" style="&#10;    fill: #6951a9;&#10;"/><path d="m318.53125 111.660156c-6.605469-6.582031-17.285156-6.582031-23.890625 0l-12.296875 12.304688c-6.597656 6.597656-6.597656 17.292968 0 23.890625l8.875 9.175781c-2.28125 4.359375-4.121094 8.929688-5.496094 13.652344h-12.800781c-9.328125 0-16.898437 7.550781-16.921875 16.878906v17.40625c.015625 9.328125 7.570312 16.882812 16.894531 16.898438l12.75.203124c1.46875 4.683594 3.394531 9.210938 5.761719 13.507813l-9.074219 9.082031c-6.585937 6.601563-6.585937 17.289063 0 23.890625l12.316407 12.308594c6.601562 6.582031 17.289062 6.582031 23.890624 0l9.183594-8.867187c4.34375 2.273437 8.90625 4.113281 13.609375 5.496093v12.796875c.007813 9.335938 7.566407 16.902344 16.898438 16.914063h17.40625c9.328125-.011719 16.882812-7.570313 16.898437-16.894531l.21875-12.75c4.675782-1.476563 9.199219-3.40625 13.5-5.757813l9.070313 9.0625c6.605469 6.582031 17.289062 6.582031 23.894531 0l12.3125-12.308594c6.589844-6.601562 6.589844-17.289062 0-23.890625l-8.875-9.140625c2.28125-4.355469 4.121094-8.929687 5.496094-13.652343h12.800781c9.332031-.003907 16.898437-7.5625 16.914063-16.898438v-17.40625c-.015626-9.324219-7.570313-16.882812-16.898438-16.894531l-12.746094-.207031c-1.46875-4.683594-3.398437-9.210938-5.761718-13.515626l9.070312-9.070312c6.597656-6.597656 6.597656-17.296875 0-23.894531l-12.320312-12.320313c-6.605469-6.585937-17.289063-6.585937-23.894532 0l-9.128906 8.882813c-4.359375-2.277344-8.933594-4.117188-13.652344-5.496094v-12.800781c-.007812-9.332032-7.566406-16.898438-16.898437-16.914063h-17.40625c-9.328125.015625-16.882813 7.570313-16.898438 16.898438l-.21875 12.746093c-4.679687 1.476563-9.199219 3.40625-13.5 5.761719zm27.761719 19.625c7.15625-2.171875 12.066406-8.757812 12.105469-16.238281l-.167969-12.648437 17.234375-.167969v12.800781c.050781 7.46875 4.953125 14.039062 12.101562 16.210938 3.691406 1.175781 7.273438 2.664062 10.710938 4.445312 6.589844 3.535156 14.714844 2.367188 20.042968-2.882812l8.832032-9.070313 12.3125 12.074219-9.078125 9.070312c-5.242188 5.328125-6.40625 13.449219-2.875 20.035156 1.78125 3.4375 3.269531 7.019532 4.445312 10.710938 2.167969 7.144531 8.730469 12.050781 16.195313 12.109375l12.648437-.171875v17.238281h-12.648437c-7.472656.050781-14.042969 4.957031-16.210938 12.109375-1.175781 3.6875-2.664062 7.269532-4.445312 10.707032-3.527344 6.589843-2.359375 14.703124 2.882812 20.027343l9.085938 8.84375-12.074219 12.3125-9.070313-9.0625c-5.324218-5.246093-13.445312-6.414062-20.035156-2.886719-3.4375 1.78125-7.019531 3.269532-10.710937 4.449219-7.140625 2.167969-12.046875 8.722657-12.109375 16.1875l.171875 12.644531-17.238281.171876v-12.800782c-.046876-7.46875-4.953126-14.039062-12.097657-16.214844-3.691406-1.171874-7.273437-2.660156-10.710937-4.445312-2.515625-1.316406-5.316406-2.007812-8.15625-2.011719-4.457032-.015625-8.738282 1.746094-11.886719 4.898438l-8.832031 9.070312-12.316406-12.074219 9.074218-9.070312c5.246094-5.328125 6.414063-13.449219 2.882813-20.039062-1.78125-3.4375-3.269531-7.019532-4.445313-10.707032-2.167968-7.144531-8.730468-12.050781-16.195312-12.109375l-12.648438.167969-.171875-17.234375h12.800781c7.472657-.050781 14.042969-4.960937 16.214844-12.109375 1.175782-3.691406 2.664063-7.273438 4.445313-10.710938 3.53125-6.589843 2.363281-14.707031-2.882813-20.035156l-9.074218-8.832031 12.078124-12.3125 9.070313 9.070313c5.324219 5.246093 13.445313 6.414062 20.035156 2.882812 3.4375-1.78125 7.019531-3.265625 10.710938-4.445312zm0 0" style="&#10;    fill: #a24876;&#10;"/><path d="m366.933594 247.464844c28.277344 0 51.199218-22.921875 51.199218-51.199219s-22.921874-51.199219-51.199218-51.199219-51.199219 22.921875-51.199219 51.199219c.027344 28.265625 22.933594 51.171875 51.199219 51.199219zm0-85.332032c18.851562 0 34.132812 15.28125 34.132812 34.132813s-15.28125 34.132813-34.132812 34.132813c-18.851563 0-34.132813-15.28125-34.132813-34.132813s15.28125-34.132813 34.132813-34.132813zm0 0" style="&#10;    fill: #6951a9;&#10;"/><path d="m375.464844 196.265625c0 4.714844-3.820313 8.535156-8.53125 8.535156-4.714844 0-8.535156-3.820312-8.535156-8.535156 0-4.710937 3.820312-8.53125 8.535156-8.53125 4.710937 0 8.53125 3.820313 8.53125 8.53125zm0 0" style="&#10;    fill: #a7388c;&#10;"/><path d="m51.199219 42.667969c0 4.710937-3.820313 8.53125-8.53125 8.53125-4.714844 0-8.535157-3.820313-8.535157-8.53125 0-4.714844 3.820313-8.535157 8.535157-8.535157 4.710937 0 8.53125 3.820313 8.53125 8.535157zm0 0" style="&#10;    fill: #6951a9;&#10;"/><path d="m85.332031 42.667969c0 4.710937-3.820312 8.53125-8.53125 8.53125-4.714843 0-8.535156-3.820313-8.535156-8.53125 0-4.714844 3.820313-8.535157 8.535156-8.535157 4.710938 0 8.53125 3.820313 8.53125 8.535157zm0 0" style="&#10;    fill: #a24876;&#10;"/><path d="m119.464844 42.667969c0 4.710937-3.820313 8.53125-8.53125 8.53125-4.714844 0-8.535156-3.820313-8.535156-8.53125 0-4.714844 3.820312-8.535157 8.535156-8.535157 4.710937 0 8.53125 3.820313 8.53125 8.535157zm0 0" style="&#10;    fill: #929292;&#10;"/><path d="m153.601562 196.265625c0 4.714844-3.820312 8.535156-8.535156 8.535156-4.710937 0-8.53125-3.820312-8.53125-8.535156 0-4.710937 3.820313-8.53125 8.53125-8.53125 4.714844 0 8.535156 3.820313 8.535156 8.53125zm0 0" style="&#10;    fill: #929292;&#10;"/><path d="m187.734375 213.332031c0 4.714844-3.820313 8.535157-8.535156 8.535157-4.710938 0-8.53125-3.820313-8.53125-8.535157 0-4.710937 3.820312-8.53125 8.53125-8.53125 4.714843 0 8.535156 3.820313 8.535156 8.53125zm0 0" style="&#10;    fill: #6951a9;&#10;"/><path d="m213.332031 238.933594c0 4.710937-3.820312 8.53125-8.53125 8.53125-4.714843 0-8.535156-3.820313-8.535156-8.53125 0-4.714844 3.820313-8.535156 8.535156-8.535156 4.710938 0 8.53125 3.820312 8.53125 8.535156zm0 0" style="&#10;    fill: #a24876;&#10;"/><path d="m119.464844 213.332031c0 4.714844-3.820313 8.535157-8.53125 8.535157-4.714844 0-8.535156-3.820313-8.535156-8.535157 0-4.710937 3.820312-8.53125 8.535156-8.53125 4.710937 0 8.53125 3.820313 8.53125 8.53125zm0 0" style="&#10;    fill: #6951a9;&#10;"/><path d="m93.867188 238.933594c0 4.710937-3.820313 8.53125-8.535157 8.53125-4.710937 0-8.53125-3.820313-8.53125-8.53125 0-4.714844 3.820313-8.535156 8.53125-8.535156 4.714844 0 8.535157 3.820312 8.535157 8.535156zm0 0" style="&#10;    fill: #a24876;&#10;"/><path d="m190.402344 126.695312c-17.527344-5.699218-35.972656-8.058593-54.371094-6.957031-3.050781.179688-5.769531 1.972657-7.140625 4.703125-1.367187 2.730469-1.175781 5.984375.503906 8.535156 1.679688 2.550782 4.59375 4.007813 7.640625 3.828126 16.257813-.976563 32.550782 1.105468 48.035156 6.136718 2.898438.953125 6.082032.289063 8.355469-1.742187 2.273438-2.03125 3.289063-5.125 2.664063-8.109375-.621094-2.984375-2.789063-5.410156-5.6875-6.359375zm0 0" style="&#10;    fill: #929292;&#10;"/><path d="m81.597656 134.058594c-13.296875 6.480468-25.523437 14.953125-36.261718 25.121094-2.214844 2.097656-3.140626 5.214843-2.433594 8.179687.707031 2.96875 2.945312 5.332031 5.867187 6.203125 2.921875.867188 6.085938.113281 8.300781-1.984375 9.476563-8.980469 20.265626-16.460937 32-22.183594 2.746094-1.335937 4.566407-4.035156 4.78125-7.078125.21875-3.042968-1.207031-5.972656-3.734374-7.679687-2.53125-1.710938-5.777344-1.9375-8.519532-.605469zm0 0" style="&#10;    fill: #a24876;&#10;"/></svg>